<svg xmlns="http://www.w3.org/2000/svg" version="1.1" width="256" height="256" viewBox="0 0 256 256" xml:space="preserve">
  <g fill="#b366ff" stroke="none" fill-rule="evenodd" transform="translate(1.4066 1.4066) scale(2.81 2.81)">
    <path d="M34.268 90c-0.669 0-1.338-0.132-1.975-0.395l-9.845-4.079c-1.274-0.527-2.267-1.519-2.795-2.795
      c-0.528-1.274-0.528-2.679 0-3.953c1.216-2.936 0.075-5.558-1.399-7.032c-1.474-1.475-4.094-2.615-7.033-1.399
      c-1.273 0.529-2.677 0.528-3.952 0.001c-1.275-0.528-2.268-1.52-2.795-2.795l-4.078-9.844c-1.089-2.63 0.164-5.657
      2.794-6.748C6.128 49.745 7.174 47.085 7.174 45c0-2.084-1.046-4.745-3.983-5.962c-1.274-0.528-2.267-1.52-2.795-2.795
      c-0.528-1.274-0.528-2.678 0-3.952l4.078-9.844c1.09-2.631 4.12-3.883 6.747-2.795c2.936 1.216 5.558 0.075 7.033-1.399
      c1.474-1.474 2.616-4.095 1.399-7.032c-1.09-2.631 0.164-5.657 2.795-6.747l9.844-4.077c1.274-0.528 2.678-0.528 3.953 0
      c1.275 0.528 2.268 1.521 2.795 2.796c1.216 2.936 3.877 3.982 5.962 3.982c2.085 0 4.745-1.046 5.962-3.983
      c1.09-2.631 4.115-3.885 6.748-2.795l9.845 4.077c1.274 0.528 2.267 1.52 2.795 2.795c0.527 1.274 0.527 2.679-0.001 3.953
      c-1.217 2.936-0.074 5.557 1.399 7.031c1.475 1.474 4.097 2.615 7.032 1.399c1.277-0.528 2.68-0.527 3.953 0
      c1.275 0.528 2.268 1.521 2.796 2.796l4.077 9.843c1.089 2.631-0.165 5.658-2.795 6.747c-2.937 1.217-3.983 3.878-3.983 5.962
      c0 2.085 1.046 4.745 3.983 5.962c2.629 1.091 3.883 4.117 2.795 6.747l-4.079 9.845c-0.527 1.273-1.52 2.266-2.795 2.795
      c-1.273 0.528-2.679 0.528-3.954-0.001c-2.934-1.217-5.557-0.074-7.031 1.399c-1.474 1.475-2.615 4.096-1.399 7.032
      c0.528 1.274 0.528 2.678 0.001 3.953c-0.528 1.275-1.521 2.267-2.796 2.796l-9.844 4.077c-2.63 1.09-5.657-0.166-6.748-2.794
      c-1.217-2.938-3.877-3.985-5.962-3.985c-2.084 0-4.746 1.047-5.962 3.984c-0.527 1.273-1.52 2.266-2.794 2.795
      C35.607 89.868 34.937 90 34.268 90z M25.491 80.293l8.349 3.459c2.105-4.294 6.31-6.926 11.161-6.926c0 0 0 0 0 0
      c4.852 0 9.056 2.633 11.16 6.926l8.348-3.459c-1.547-4.524-0.435-9.358 2.996-12.788c3.431-3.431 8.265-4.544 12.789-2.996
      l3.459-8.348c-4.294-2.104-6.926-6.309-6.926-11.16c0-4.852 2.632-9.057 6.926-11.162l-3.459-8.349
      c-4.523 1.549-9.359 0.435-12.789-2.994c-3.432-3.431-4.543-8.265-2.996-12.789l-8.348-3.458c-2.103 4.293-6.308 6.925-11.16 6.925
      c-4.852 0-9.057-2.632-11.162-6.925l-8.349 3.458c1.548 4.524 0.436 9.358-2.995 12.789c-3.431 3.431-8.264 4.544-12.789 2.994
      l-3.458 8.349c4.294 2.105 6.926 6.31 6.926 11.162c0 4.852-2.632 9.056-6.926 11.16l3.458 8.348
      c4.525-1.547 9.359-0.435 12.789 2.995C25.927 70.935 27.039 75.769 25.491 80.293z M45.001 65.781
      C33.543 65.781 24.22 56.459 24.22 45c0-11.459 9.323-20.781 20.781-20.781S65.783 33.541 65.783 45
      C65.783 56.459 56.46 65.781 45.001 65.781z M45.001 30.218C36.851 30.218 30.22 36.85 30.22 45
      c0 8.151 6.631 14.782 14.781 14.782C53.153 59.782 59.783 53.151 59.783 45
      C59.783 36.85 53.153 30.218 45.001 30.218z"/>
  </g>
</svg>